<svg  stroke='currentColor' xmlns="http://www.w3.org/2000/svg" preserveAspectRatio="xMidYMid meet" viewBox="0 0 31.186 31.186">
  <g>
    <path style="fill:currentColor;" d="M13.593,9.186c1.104,0,2-0.896,2-2s-0.896-2-2-2s-2,0.896-2,2S12.489,9.186,13.593,9.186z    M25.593,14.704V7.636L13.593,0l-12,7.638v23.548h24v-1.518c2.411-1.614,4-4.361,4-7.481   C29.593,19.066,28.004,16.318,25.593,14.704z M3.593,29.185V8.734l10-6.364l10,6.364v4.974c-0.939-0.332-1.945-0.522-3-0.522   c-4.973,0-9,4.027-9,9.001c0,2.828,1.307,5.349,3.348,6.998H3.593z M20.593,29.186c-3.865-0.008-6.994-3.135-7-6.999   c0.006-3.866,3.135-6.995,7-7.001c3.863,0.006,6.991,3.135,6.999,7.001C27.584,26.051,24.456,29.178,20.593,29.186z"/>
    <path style="fill:currentColor;" d="M19.593,26.186h-3v-3L19.593,26.186z M25.593,20.186l-5,5l-3-3.001l5-5L25.593,20.186z"/>
  </g>
</svg>